<svg width="29" height="29" viewBox="0 0 29 29" fill="none" xmlns="http://www.w3.org/2000/svg">
<g clip-path="url(#clip0_16_77)" filter="url(#filter0_d_16_77)">
<path d="M24.7353 19.4958L18.7101 13.4663C19.8979 12.0418 20.6124 10.2213 20.6124 8.23301C20.6124 3.69689 16.8896 0.00860596 12.3105 0.00860596C7.73132 0.00860596 4 3.70119 4 8.23731C4 12.7734 7.72272 16.4617 12.3019 16.4617C14.2472 16.4617 16.0375 15.7946 17.4577 14.68L23.5045 20.7267C23.8574 21.0796 24.3824 21.0796 24.7353 20.7267C25.0882 20.3738 25.0882 19.8487 24.7353 19.4958ZM5.76452 8.23731C5.76452 4.67383 8.69966 1.77743 12.3019 1.77743C15.9041 1.77743 18.8392 4.67383 18.8392 8.23731C18.8392 11.8008 15.9041 14.6972 12.3019 14.6972C8.69966 14.6972 5.76452 11.7965 5.76452 8.23731Z" fill="white"/>
</g>
<defs>
<filter id="filter0_d_16_77" x="0" y="0" width="29" height="29" filterUnits="userSpaceOnUse" color-interpolation-filters="sRGB">
<feFlood flood-opacity="0" result="BackgroundImageFix"/>
<feColorMatrix in="SourceAlpha" type="matrix" values="0 0 0 0 0 0 0 0 0 0 0 0 0 0 0 0 0 0 127 0" result="hardAlpha"/>
<feOffset dy="4"/>
<feGaussianBlur stdDeviation="2"/>
<feComposite in2="hardAlpha" operator="out"/>
<feColorMatrix type="matrix" values="0 0 0 0 0 0 0 0 0 0 0 0 0 0 0 0 0 0 0.25 0"/>
<feBlend mode="normal" in2="BackgroundImageFix" result="effect1_dropShadow_16_77"/>
<feBlend mode="normal" in="SourceGraphic" in2="effect1_dropShadow_16_77" result="shape"/>
</filter>
<clipPath id="clip0_16_77">
<rect width="21" height="21" fill="white" transform="translate(4)"/>
</clipPath>
</defs>
</svg>
